<svg width="222" height="93" viewBox="0 0 222 93" fill="none" xmlns="http://www.w3.org/2000/svg">
<path fill-rule="evenodd" clip-rule="evenodd" d="M216.963 26.3306C219.087 19.7284 221.077 13.5439 221.077 9.76993C221.077 4.94679 218.452 0 211.973 0C205.409 0 202.785 4.94679 202.785 9.79464C202.785 13.4858 204.679 19.5069 206.712 25.9689V25.9691C208.463 31.5358 210.318 37.4299 211.152 42.4436H212.467C213.358 37.539 215.207 31.7918 216.963 26.3306ZM214.89 60.8613C214.045 61.2193 213.138 61.4058 212.22 61.4095C211.292 61.4167 210.371 61.2391 209.512 60.8869C208.654 60.5346 207.873 60.015 207.217 59.3582C206.56 58.7011 206.041 57.9202 205.689 57.0604C205.337 56.2006 205.16 55.2794 205.167 54.3504C205.167 50.6552 208.266 47.6179 212.22 47.6179C213.116 47.5981 214.008 47.7576 214.842 48.0868C215.676 48.4163 216.436 48.9087 217.078 49.5358C217.719 50.1626 218.23 50.9115 218.578 51.7382C218.927 52.5648 219.108 53.4529 219.11 54.3504C219.127 55.2685 218.963 56.1811 218.625 57.0348C218.287 57.8885 217.782 58.6665 217.141 59.3235C216.5 59.9804 215.735 60.5032 214.89 60.8613ZM121.622 54.5138C119.571 57.551 115.226 61.4095 109.157 61.4095C104.215 61.4095 102.43 58.0457 101.857 54.761C98.9855 57.6351 94.1471 61.4095 88.6511 61.4095C81.3462 61.4095 78.1487 57.3036 78.1487 51.6396C78.1487 43.1855 89.9608 38.8324 101.689 35.5476V23.8089C101.689 21.9193 100.542 20.4451 98.3284 20.4451C95.5409 20.4451 94.063 22.4239 94.063 25.2039C94.063 27.7514 95.6198 29.6561 97.2607 29.9676C96.4403 32.5944 92.6693 35.1224 88.4683 35.1224C83.7137 35.1224 81.4995 31.9218 81.4995 28.0632C81.4995 22.9729 88.0581 18.7039 98.3974 18.7039C108.737 18.7039 115.651 23.6457 115.651 30.2943V52.3767C115.651 54.677 116.882 55.2557 118.029 55.2557C119.175 55.2557 119.916 54.8402 120.9 53.9398L121.622 54.5138ZM101.689 52.6241V37.4374C97.671 39.8168 93.4105 44.9069 93.4105 49.5867C93.4105 52.3767 95.2145 54.2664 97.8587 54.2664C99.2891 54.1885 100.646 53.6068 101.689 52.6241ZM67.0136 33.2524C72.8406 33.0841 76.4483 30.5612 76.4483 26.1091C76.4483 22.493 73.9872 18.7186 67.8338 18.7186C61.9524 18.7186 57.9096 24.546 56.0215 30.3782V19.2034L43.1468 21.6768L37.9623 22.5771L38.1253 23.7248C41.422 23.1509 42.0792 25.6145 42.0792 30.7046V51.7236C42.0792 56.8139 41.1749 59.4405 37.8979 59.4405V60.5883H60.2079V59.4405C56.9261 59.4405 56.0215 56.8139 56.0215 51.7236V37.1107C56.0215 31.61 59.1403 27.9939 62.5011 27.9939C65.3727 27.9939 66.6872 30.6205 67.0136 33.2524ZM19.6854 18.7978C7.63101 18.7978 0 28.5726 0 40.8854C0 53.5292 7.29986 61.2463 16.4729 61.2512C26.8074 61.2512 32.2093 53.5343 34.6804 45.7332L33.692 45.2385C31.1517 48.2758 29.1798 50.4079 23.9309 50.4079C16.7151 50.4079 12.86 42.8542 12.86 34.8896C12.86 28.3252 15.3213 20.6083 19.6656 20.6083C22.211 20.6083 22.9474 24.546 22.9474 30.6207C23.7035 32.4312 25.5075 33.3314 27.3955 33.3314C31.0035 33.3314 32.8913 30.8681 32.8913 27.5043C32.8913 22.1666 27.8896 18.7978 19.6854 18.7978ZM164.289 20.6875V19.5398H147.875V20.6875C153.371 20.6875 154.355 27.6675 151.731 33.9894L146.758 45.9755L139.132 27.7514C137.16 22.9878 136.587 20.6875 139.869 20.6875V19.5398H118.167V20.6875C120.144 20.6875 122.21 22.9878 124.098 27.7514L137.892 60.9199H142.963L155.922 29.557C157.478 25.7777 160.187 20.6875 164.289 20.6875ZM198.421 44.4173L199.489 44.7439C197.848 52.7873 192.105 61.2463 180.539 61.2463C169.716 61.2463 162.253 51.8029 162.253 39.9751C162.253 28.4838 169.721 18.793 181.943 18.793C194.235 18.7979 199.572 30.5417 199.572 36.7004H175.212C175.622 43.9227 178.736 50.4079 186.198 50.4079C192.515 50.4079 196.864 47.4546 198.421 44.4173ZM175.128 34.6276H186.693C186.614 28.9637 185.546 20.5887 181.523 20.5887C177.263 20.6085 175.212 28.1574 175.128 34.6276ZM59.0018 85.8764C58.9986 86.8171 58.81 87.7481 58.4464 88.6157C58.0831 89.4834 57.5521 90.2707 56.884 90.9324C56.216 91.5943 55.4239 92.1177 54.5532 92.4722C53.6826 92.827 52.7506 93.0063 51.8108 92.9998H46.0727V78.7826H51.8108C52.7483 78.7757 53.6782 78.9535 54.5472 79.306C55.4162 79.6587 56.2071 80.1793 56.875 80.8382C57.5428 81.4968 58.0743 82.2811 58.4392 83.1455C58.8042 84.0099 58.9953 84.9381 59.0018 85.8764ZM56.4566 85.8764C56.4566 84.6433 55.9672 83.4605 55.0959 82.5884C54.2245 81.7163 53.0429 81.2264 51.8108 81.2264H48.6179V90.5264H51.8108C53.0429 90.5264 54.2245 90.0366 55.0959 89.1645C55.9672 88.2923 56.4566 87.1096 56.4566 85.8764ZM67.9476 85.0848V81.2262H75.8307V78.7826H65.4073V92.9995H75.8553V90.5262H67.9476V87.5283H74.5803V85.0848H67.9476ZM94.9773 90.5262V92.9995H83.9263V78.7826H86.4912V90.5262H94.9773ZM103.295 78.7826H100.75V92.9995H103.295V78.7826ZM110.061 78.7875H112.79L116.961 89.6162L121.127 78.7875H123.86L118.335 92.9651H115.582L110.061 78.7875ZM132.865 85.0848V81.2262H140.749V78.7826H130.32V92.9995H140.749V90.5262H132.865V87.5283H139.498V85.0848H132.865ZM155.116 88.2705L158.027 92.9749H155.032L152.269 88.5227H150.188V92.9749H147.643V78.7826H153.574C154.733 78.7759 155.857 79.1844 156.742 79.9344C157.626 80.6842 158.214 81.7261 158.398 82.8718C158.583 84.0174 158.352 85.1913 157.747 86.1812C157.143 87.1715 156.204 87.9124 155.101 88.2705H155.116ZM150.174 86.0643H153.574C154.215 86.0643 154.83 85.8095 155.283 85.3559C155.736 84.902 155.991 84.2868 155.991 83.6454C155.991 83.0037 155.736 82.3885 155.283 81.9349C154.83 81.4813 154.215 81.2264 153.574 81.2264H150.174V86.0643ZM170.833 92.9998V88.2905L176.334 78.8075H173.403L169.558 85.5795L165.712 78.8075H162.782L168.287 88.3151V92.9998H170.833Z" fill="black"/>
</svg>
